<svg width="30" height="30" viewBox="0 0 30 30" fill="none" xmlns="http://www.w3.org/2000/svg">
<path fill-rule="evenodd" clip-rule="evenodd" d="M18.4927 15.5608C17.7681 17.7635 18.9277 18.2862 19.1111 18.3462C23.1357 19.6789 27.6577 22.1874 27.6577 24.7581V25.6939C27.6577 29.0943 21.1477 29.8674 15.0369 29.8674C8.93536 29.8674 2.34229 29.0943 2.34229 25.6939V24.7581C2.34229 22.2624 6.84229 19.7343 10.6777 18.3474C10.9546 18.2458 12.2792 17.5247 11.5384 15.5816C9.63805 13.6408 8.20267 10.4977 8.20267 7.40313C8.20267 2.66313 11.3365 0.180054 15.0011 0.180054C18.6634 0.180054 21.8146 2.66428 21.8146 7.40313C21.8146 10.4851 20.3711 13.6154 18.4823 15.5608H18.4927ZM18.074 20.3416C17.8307 20.3434 17.598 20.4414 17.4268 20.6143C17.4184 20.6226 17.411 20.632 17.4037 20.6414L17.4024 20.643L13.1399 26.0743L10.5705 23.5043C10.3979 23.3316 10.1637 23.2345 9.91951 23.2344C9.67531 23.2344 9.44108 23.3313 9.26836 23.504C9.09563 23.6766 8.99857 23.9108 8.99851 24.155C8.99845 24.3992 9.0954 24.6334 9.26804 24.8062L12.5168 28.0537C12.6043 28.1411 12.7086 28.2099 12.8233 28.2561C12.9381 28.3023 13.0609 28.3249 13.1846 28.3226C13.3083 28.3203 13.4302 28.293 13.5431 28.2425C13.656 28.192 13.7576 28.1193 13.8418 28.0287L18.7418 21.903C18.9111 21.7283 19.0045 21.4937 19.0013 21.2505C18.9982 21.0072 18.8989 20.775 18.7252 20.6047C18.5514 20.4344 18.3173 20.3398 18.074 20.3416Z" fill="#adb5bd"/>
</svg>
