<svg width="60" height="60" viewBox="0 0 60 60" fill="none" xmlns="http://www.w3.org/2000/svg">
<g clip-path="url(#clip0)">
<path d="M46.9043 36.5625C45.8864 34.6192 44.5552 32.989 42.9109 31.672C41.7657 33.2655 40.3853 34.6914 38.8067 35.8967C41.142 36.9413 43.2928 38.28 45.1836 39.8659C45.8645 38.8292 46.4381 37.7281 46.9043 36.5625Z" fill="white"/>
<path d="M54.6387 59.0918C55.2441 59.6973 55.9814 60 56.8506 60C57.7197 60 58.4619 59.6924 59.0771 59.0771C59.6924 58.4619 60 57.7197 60 56.8506C60 55.9814 59.6973 55.2441 59.0918 54.6387L52.2656 47.8125C51.8768 47.4236 51.4477 47.1581 50.9784 47.0159C52.4851 49.9247 53.3333 53.1809 53.3333 56.6667C53.3333 56.9999 53.2834 57.328 53.1878 57.6409L54.6387 59.0918Z" fill="white"/>
<path fill-rule="evenodd" clip-rule="evenodd" d="M26.6667 2.96785e-07C22.4833 -0.000720175 18.4051 1.31033 15.0059 3.74866C11.6066 6.18698 9.05756 9.62981 7.71736 13.5926C6.37716 17.5555 6.31331 21.8388 7.5348 25.8398C8.75629 29.8408 11.2016 33.3581 14.5267 35.8967C6.04667 39.69 0 47.36 0 56.6667C0 57.5507 0.35119 58.3986 0.976311 59.0237C1.60143 59.6488 2.44928 60 3.33333 60H50C50.7379 60 51.4505 59.7554 52.0295 59.311L46.3983 53.6798C45.4744 52.7559 44.9641 51.6307 44.8999 50.3943L41.1957 46.6902C39.969 47.5133 38.668 48.1961 37.2945 48.7362L36.45 49.0683L35.644 48.6516C32.4033 46.9761 29.9184 44.489 28.2258 41.2356L27.8023 40.4216L28.143 39.5697C29.1828 36.9703 30.7077 34.6708 32.7058 32.6835C34.7014 30.6988 37.0031 29.1814 39.599 28.143L40.454 27.801L41.2698 28.2283C42.2491 28.7413 43.1596 29.3268 44.0001 29.9836C44.75 28.6819 45.355 27.2928 45.7985 25.8398C47.02 21.8388 46.9562 17.5555 45.616 13.5926C44.2758 9.62981 41.7267 6.18698 38.3275 3.74866C34.9282 1.31033 30.85 -0.000720175 26.6667 2.96785e-07Z" fill="white"/>
<path d="M59.0771 59.0771C58.4619 59.6924 57.7197 60 56.8506 60C55.9814 60 55.2441 59.6973 54.6387 59.0918L47.8125 52.2656C47.0703 51.5234 46.7773 50.6348 46.9336 49.5996L41.3965 44.0625C39.9121 45.2539 38.3008 46.1914 36.5625 46.875C33.6914 45.3906 31.5039 43.2031 30 40.3125C30.9375 37.9688 32.3096 35.8984 34.1162 34.1016C35.9229 32.3047 37.998 30.9375 40.3418 30C43.2129 31.5039 45.4004 33.6914 46.9043 36.5625C46.2012 38.3203 45.2539 39.9316 44.0625 41.3965L49.5996 46.9336C50.6348 46.7773 51.5234 47.0703 52.2656 47.8125L59.0918 54.6387C59.6973 55.2441 60 55.9814 60 56.8506C60 57.7197 59.6924 58.4619 59.0771 59.0771Z" fill="white"/>
</g>
<defs>
<clipPath id="clip0">
<rect width="60" height="60" fill="white"/>
</clipPath>
</defs>
</svg>
