<svg width="60" height="61" viewBox="0 0 60 61" fill="none" xmlns="http://www.w3.org/2000/svg">
<g clip-path="url(#clip0)">
<path d="M58.1543 58.4069C56.9238 59.6373 55.4395 60.2526 53.7012 60.2526C51.9629 60.2526 50.4883 59.6471 49.2773 58.4362L35.625 44.7838C34.1406 43.2994 33.5547 41.5221 33.8672 39.4518L22.793 28.3776C19.8242 30.7604 16.6016 32.6354 13.125 34.0026C7.38281 31.0338 3.00781 26.6588 0 20.8776C1.875 16.1901 4.61914 12.0494 8.23242 8.45569C11.8457 4.86194 15.9961 2.12756 20.6836 0.252563C26.4258 3.26038 30.8008 7.63538 33.8086 13.3776C32.4023 16.8932 30.5078 20.1158 28.125 23.0455L39.1992 34.1198C41.2695 33.8073 43.0469 34.3932 44.5312 35.8776L58.1836 49.5299C59.3945 50.7408 60 52.2155 60 53.9537C60 55.692 59.3848 57.1764 58.1543 58.4069Z" fill="white"/>
</g>
<defs>
<clipPath id="clip0">
<rect width="60" height="60" fill="white" transform="translate(0 0.252563)"/>
</clipPath>
</defs>
</svg>
