<svg width="61" height="60" viewBox="0 0 61 60" fill="none" xmlns="http://www.w3.org/2000/svg">
<path d="M25.2024 40V37.5H7.72739L7.70239 47.5C7.70239 50.275 9.92739 52.5 12.7024 52.5H47.7024C50.4774 52.5 52.7024 50.275 52.7024 47.5V37.5H35.2024V40H25.2024ZM50.2024 17.5H40.1774V12.5L35.1774 7.5H25.1774L20.1774 12.5V17.5H10.2024C7.45239 17.5 5.20239 19.75 5.20239 22.5V30C5.20239 32.775 7.42739 35 10.2024 35H25.2024V30H35.2024V35H50.2024C52.9524 35 55.2024 32.75 55.2024 30V22.5C55.2024 19.75 52.9524 17.5 50.2024 17.5ZM35.2024 17.5H25.2024V12.5H35.2024V17.5Z" fill="white"/>
</svg>
