<svg width="60" height="60" viewBox="0 0 60 60" fill="none" xmlns="http://www.w3.org/2000/svg">
<g clip-path="url(#clip0)">
<path d="M35.4688 9.16498C38.5606 9.79111 41.097 11.059 43.274 12.8839C43.8911 13.4012 43.9641 14.3326 43.4424 14.946L40.7855 18.0697C40.2915 18.6506 39.4346 18.7488 38.8168 18.3016C36.4254 16.5704 33.9469 15.7447 31.101 15.7447C27.8318 15.7447 25.7736 17.1372 25.7736 19.6193C25.7736 22.1618 27.287 23.191 33.5228 25.1284C41.1508 27.5502 45.5099 30.7587 45.5099 38.1447C45.5099 44.0019 41.8059 48.4977 35.38 50.1849C34.7459 50.3515 34.3096 50.9335 34.3096 51.5892V58.5411C34.3096 59.3469 33.6564 60 32.8507 60H28.8064C28.0006 60 27.3475 59.3468 27.3475 58.5411V52.1071C27.3475 51.3818 26.8151 50.7589 26.0961 50.6645C21.532 50.0653 17.985 48.3364 15.3273 46.1177C14.6944 45.5893 14.1695 45.1519 14.7244 44.542L18.3557 40.552C19.1555 39.6732 19.5416 40.1107 20.1404 40.5737C22.7409 42.5847 25.6934 43.7147 29.1638 43.7147C33.0988 43.7147 35.4602 41.8986 35.4602 38.8712C35.4602 35.9654 34.0068 34.6333 28.1951 32.8173C19.114 30.0323 15.9052 26.2789 15.9052 20.3457C15.9052 14.5214 20.0522 10.4204 26.2129 9.10967C26.8783 8.96811 27.3475 9.13217 27.3475 8.45178V0.642755C27.3475 -0.163026 28.0007 0.00373133 28.8064 0.00373133H32.8507C33.6565 0.00373133 34.3096 0.656934 34.3096 1.4626V7.74127C34.3096 8.43057 34.7932 9.02822 35.4688 9.16498V9.16498Z" fill="#adb5bd"/>
</g>
<defs>
<clipPath id="clip0">
<rect width="60" height="60" fill="white"/>
</clipPath>
</defs>
</svg>
