<svg width="31" height="31" viewBox="0 0 31 31" fill="none" xmlns="http://www.w3.org/2000/svg">
<path d="M6.38091 6.2356H26.2559C28.1309 6.2356 29.0759 7.1206 29.0759 8.9206V21.5506C29.0759 23.3356 28.1309 24.2356 26.2559 24.2356H6.38091C4.50591 24.2356 3.56091 23.3356 3.56091 21.5506V8.9206C3.56091 7.1206 4.50591 6.2356 6.38091 6.2356ZM16.3109 19.1356L26.4209 10.8406C26.7809 10.5406 27.0659 9.8506 26.6159 9.2356C26.1809 8.6206 25.3859 8.6056 24.8609 8.9806L16.3109 14.7706L7.77591 8.9806C7.25091 8.6056 6.45591 8.6206 6.02091 9.2356C5.57091 9.8506 5.85591 10.5406 6.21591 10.8406L16.3109 19.1356Z" fill="#adb5bd"/>
</svg>
