<svg width="61" height="60" viewBox="0 0 61 60" fill="none" xmlns="http://www.w3.org/2000/svg">
<path d="M7.23718 45.6272C6.76899 46.2127 6.4255 46.8879 6.22782 47.611C6.03015 48.3342 5.98246 49.0902 6.0877 49.8325C6.19294 50.5748 6.44888 51.2877 6.83979 51.9275C7.2307 52.5672 7.74831 53.1203 8.36082 53.5526C10.6408 55.1344 13.5099 54.8508 15.5445 52.8217C22.5317 45.8399 29.519 38.8526 36.4954 31.8544C36.8445 31.5054 37.1172 31.3908 37.6245 31.5599C39.959 32.3563 42.3481 32.449 44.7481 31.8926C46.4787 31.4986 48.1135 30.7638 49.557 29.7312C51.0005 28.6985 52.2239 27.3886 53.1556 25.878C54.0874 24.3673 54.7089 22.6862 54.9839 20.9328C55.2589 19.1793 55.1818 17.3887 54.7572 15.6653C54.6317 15.1526 54.4463 14.6563 54.2445 14.0017C54.0535 14.2417 48.8063 19.5272 46.2863 22.0744C46.1571 22.2239 45.9906 22.3364 45.8037 22.4006C45.6169 22.4648 45.4164 22.4784 45.2226 22.4399C44.6717 22.3526 40.3463 22.0035 38.7808 21.8181C38.519 19.5817 38.3826 17.2581 38.1536 15.0653C38.1317 14.8581 38.279 14.5744 38.4317 14.4163C40.3408 12.4853 45.6972 7.14535 46.4826 6.36535C44.7808 5.56353 41.8626 5.24171 39.6917 5.60171C37.7694 5.8986 35.9351 6.61154 34.3169 7.69074C32.6986 8.76995 31.3355 10.1894 30.3226 11.85C29.3098 13.5105 28.6716 15.3722 28.4527 17.3049C28.2339 19.2377 28.4395 21.1949 29.0554 23.0399C29.1972 23.4763 29.1099 23.7272 28.799 24.0326L7.23718 45.6326V45.6272Z" fill="white"/>
</svg>
