<svg width="26" height="31" viewBox="0 0 26 31" fill="none" xmlns="http://www.w3.org/2000/svg">
<g clip-path="url(#clip0)">
<path d="M13.0703 20.0689C13.1443 20.0936 13.1937 20.143 13.2184 20.2171C13.2431 20.2911 13.2308 20.3652 13.1814 20.4393L10.1073 23.5134C9.61347 24.0072 9.04557 24.4023 8.4036 24.6986C7.76162 24.9948 7.1073 25.1677 6.44063 25.2171C5.77397 25.2665 5.1073 25.2171 4.44063 25.0689C3.77397 24.9208 3.16903 24.6121 2.62582 24.143C1.95915 23.6245 1.44063 22.9948 1.07026 22.2541C0.699893 21.5134 0.502363 20.7726 0.477671 20.0319C0.45298 19.2911 0.564091 18.5381 0.811005 17.7726C1.05792 17.0072 1.47767 16.3405 2.07026 15.7726L6.84804 10.9948C7.61347 10.2294 8.50236 9.66151 9.51471 9.29114C10.5271 8.92077 11.5641 8.82201 12.6258 8.99485C13.5641 9.143 14.3048 9.4146 14.848 9.80966C15.3913 10.2047 15.8233 10.6615 16.1443 11.18C16.1937 11.3035 16.1875 11.3961 16.1258 11.4578C16.0641 11.5195 15.9962 11.5751 15.9221 11.6245C15.848 11.6739 15.7616 11.7479 15.6629 11.8467L15.4036 12.106C15.1567 12.3776 14.8604 12.5134 14.5147 12.5134C14.169 12.5134 13.8542 12.3714 13.5703 12.0874C13.2863 11.8035 12.9715 11.5874 12.6258 11.4393C12.2801 11.2911 11.8974 11.2294 11.4777 11.2541C11.0579 11.2788 10.6875 11.3405 10.3666 11.4393C10.0456 11.5381 9.71224 11.7603 9.36656 12.106L3.88508 17.5874C3.56409 17.9084 3.32952 18.2788 3.18137 18.6986C3.03323 19.1183 2.98384 19.5381 3.03323 19.9578C3.08261 20.3776 3.20607 20.7973 3.4036 21.2171C3.60113 21.6368 3.92212 21.9702 4.36656 22.2171C4.98384 22.6368 5.65051 22.785 6.36656 22.6615C7.08261 22.5381 7.68755 22.2418 8.18137 21.7726L10.5517 19.4393C10.6011 19.3652 10.6752 19.3529 10.774 19.4023C11.5147 19.7232 12.2801 19.9455 13.0703 20.0689ZM23.3666 1.32818C24.0332 1.8467 24.5517 2.46398 24.9221 3.18003C25.2925 3.89608 25.5024 4.63682 25.5517 5.40226C25.6011 6.16769 25.49 6.93312 25.2184 7.69855C24.9468 8.46398 24.5147 9.13065 23.9221 9.69855L19.1443 14.4763C18.3789 15.2418 17.49 15.7973 16.4777 16.143C15.4653 16.4887 14.4159 16.5874 13.3295 16.4393C12.3913 16.3158 11.6629 16.0442 11.1443 15.6245C10.6258 15.2047 10.1937 14.7479 9.84804 14.2541C9.79866 14.1553 9.811 14.0689 9.88508 13.9948L10.5517 13.3282C10.8233 13.0813 11.132 12.9578 11.4777 12.9578C11.8233 12.9578 12.1196 13.0813 12.3666 13.3282C12.6629 13.6245 12.9962 13.8467 13.3666 13.9948C13.7369 14.143 14.1196 14.2171 14.5147 14.2171C14.9098 14.2171 15.2925 14.143 15.6629 13.9948C16.0332 13.8467 16.3542 13.6245 16.6258 13.3282L22.1073 7.88374C22.4283 7.56275 22.6629 7.18003 22.811 6.73559C22.9591 6.29114 23.0085 5.85905 22.9591 5.43929C22.9098 5.01954 22.774 4.61213 22.5517 4.21707C22.3295 3.82201 22.0085 3.48868 21.5888 3.21707C20.9962 2.82201 20.3419 2.67386 19.6258 2.77263C18.9098 2.87139 18.2925 3.18003 17.774 3.69855L15.4406 6.03189C15.3666 6.10596 15.2925 6.11831 15.2184 6.06892C14.5271 5.77263 13.7616 5.53806 12.9221 5.36522C12.8233 5.36522 12.774 5.31584 12.774 5.21707C12.774 5.11831 12.7863 5.05658 12.811 5.03189L15.8851 1.95781C16.3789 1.46398 16.9468 1.06892 17.5888 0.772626C18.2308 0.47633 18.8727 0.291145 19.5147 0.217071C20.1567 0.142997 20.8233 0.204725 21.5147 0.402256C22.2061 0.599787 22.8233 0.908429 23.3666 1.32818Z" fill="#adb5bd"/>
</g>
<defs>
<clipPath id="clip0">
<rect width="25.1852" height="30" fill="white" transform="translate(0.440674 0.180054)"/>
</clipPath>
</defs>
</svg>
