<svg width="31" height="31" viewBox="0 0 31 31" fill="none" xmlns="http://www.w3.org/2000/svg">
<path d="M22.9758 10.8695H25.4758C25.8074 10.8695 26.1253 11.0012 26.3597 11.2356C26.5941 11.47 26.7258 11.788 26.7258 12.1195V27.1195C26.7258 27.451 26.5941 27.769 26.3597 28.0034C26.1253 28.2378 25.8074 28.3695 25.4758 28.3695H5.47583C5.14431 28.3695 4.82637 28.2378 4.59195 28.0034C4.35753 27.769 4.22583 27.451 4.22583 27.1195V12.1195C4.22583 11.788 4.35753 11.47 4.59195 11.2356C4.82637 11.0012 5.14431 10.8695 5.47583 10.8695H7.97583V9.61951C7.97583 7.63038 8.76601 5.72273 10.1725 4.31621C11.5791 2.90968 13.4867 2.11951 15.4758 2.11951C17.465 2.11951 19.3726 2.90968 20.7791 4.31621C22.1857 5.72273 22.9758 7.63038 22.9758 9.61951V10.8695ZM20.4758 10.8695V9.61951C20.4758 8.29342 19.949 7.02165 19.0114 6.08397C18.0737 5.14629 16.8019 4.61951 15.4758 4.61951C14.1497 4.61951 12.878 5.14629 11.9403 6.08397C11.0026 7.02165 10.4758 8.29342 10.4758 9.61951V10.8695H20.4758ZM14.2258 18.3695V20.8695H16.7258V18.3695H14.2258ZM9.22583 18.3695V20.8695H11.7258V18.3695H9.22583ZM19.2258 18.3695V20.8695H21.7258V18.3695H19.2258Z" fill="#adb5bd"/>
</svg>
