<svg width="31" height="31" viewBox="0 0 31 31" fill="none" xmlns="http://www.w3.org/2000/svg">
<path fill-rule="evenodd" clip-rule="evenodd" d="M15.2024 2.11951C7.60864 2.11951 1.45239 8.27576 1.45239 15.8695C1.45239 23.4633 7.60864 29.6195 15.2024 29.6195C22.7961 29.6195 28.9524 23.4633 28.9524 15.8695C28.9524 8.27576 22.7961 2.11951 15.2024 2.11951ZM13.8174 12.0383C14.1049 11.472 14.3174 11.2033 14.4936 11.0633C14.6261 10.9583 14.8061 10.8695 15.2024 10.8695C15.9836 10.8695 16.4524 11.457 16.4524 12.092C16.4524 12.4395 16.3849 12.612 16.1999 12.832C15.9411 13.1395 15.4624 13.5133 14.5149 14.1395L13.9524 14.5095V17.1195C13.9524 17.451 14.0841 17.769 14.3185 18.0034C14.5529 18.2378 14.8709 18.3695 15.2024 18.3695C15.5339 18.3695 15.8519 18.2378 16.0863 18.0034C16.3207 17.769 16.4524 17.451 16.4524 17.1195V15.8483C17.1299 15.3808 17.6986 14.9333 18.1111 14.4433C18.7074 13.7358 18.9524 12.9808 18.9524 12.092C18.9524 10.2545 17.5361 8.36951 15.2024 8.36951C14.3474 8.36951 13.5911 8.58951 12.9424 9.10326C12.3374 9.58201 11.9249 10.2408 11.5874 10.9095C11.509 11.0563 11.4607 11.2174 11.4453 11.3831C11.43 11.5489 11.4479 11.716 11.498 11.8748C11.5481 12.0335 11.6294 12.1806 11.7372 12.3075C11.8449 12.4344 11.9769 12.5385 12.1255 12.6137C12.274 12.6889 12.436 12.7336 12.6021 12.7453C12.7681 12.757 12.9349 12.7354 13.0925 12.6818C13.2501 12.6282 13.3954 12.5437 13.5199 12.4332C13.6443 12.3227 13.7455 12.1884 13.8174 12.0383ZM16.4524 21.4945C16.4524 21.163 16.3207 20.845 16.0863 20.6106C15.8519 20.3762 15.5339 20.2445 15.2024 20.2445C14.8709 20.2445 14.5529 20.3762 14.3185 20.6106C14.0841 20.845 13.9524 21.163 13.9524 21.4945V22.1195C13.9524 22.451 14.0841 22.769 14.3185 23.0034C14.5529 23.2378 14.8709 23.3695 15.2024 23.3695C15.5339 23.3695 15.8519 23.2378 16.0863 23.0034C16.3207 22.769 16.4524 22.451 16.4524 22.1195V21.4945Z" fill="#adb5bd"/>
</svg>
