<svg width="30" height="30" viewBox="0 0 30 30" fill="none" xmlns="http://www.w3.org/2000/svg">
<path d="M11.25 9.375C11.0014 9.375 10.7629 9.47377 10.5871 9.64959C10.4113 9.8254 10.3125 10.0639 10.3125 10.3125C10.3125 10.5611 10.4113 10.7996 10.5871 10.9754C10.7629 11.1512 11.0014 11.25 11.25 11.25H18.75C18.9986 11.25 19.2371 11.1512 19.4129 10.9754C19.5887 10.7996 19.6875 10.5611 19.6875 10.3125C19.6875 10.0639 19.5887 9.8254 19.4129 9.64959C19.2371 9.47377 18.9986 9.375 18.75 9.375H11.25ZM11.25 15C11.0014 15 10.7629 15.0988 10.5871 15.2746C10.4113 15.4504 10.3125 15.6889 10.3125 15.9375C10.3125 16.1861 10.4113 16.4246 10.5871 16.6004C10.7629 16.7762 11.0014 16.875 11.25 16.875H18.75C18.9986 16.875 19.2371 16.7762 19.4129 16.6004C19.5887 16.4246 19.6875 16.1861 19.6875 15.9375C19.6875 15.6889 19.5887 15.4504 19.4129 15.2746C19.2371 15.0988 18.9986 15 18.75 15H11.25ZM11.25 20.625C11.0014 20.625 10.7629 20.7238 10.5871 20.8996C10.4113 21.0754 10.3125 21.3139 10.3125 21.5625C10.3125 21.8111 10.4113 22.0496 10.5871 22.2254C10.7629 22.4012 11.0014 22.5 11.25 22.5H12.1875C12.4361 22.5 12.6746 22.4012 12.8504 22.2254C13.0262 22.0496 13.125 21.8111 13.125 21.5625C13.125 21.3139 13.0262 21.0754 12.8504 20.8996C12.6746 20.7238 12.4361 20.625 12.1875 20.625H11.25ZM9.375 1.875C9.62364 1.875 9.8621 1.97377 10.0379 2.14959C10.2137 2.3254 10.3125 2.56386 10.3125 2.8125V3.75H14.0625V2.8125C14.0625 2.56386 14.1613 2.3254 14.3371 2.14959C14.5129 1.97377 14.7514 1.875 15 1.875C15.2486 1.875 15.4871 1.97377 15.6629 2.14959C15.8387 2.3254 15.9375 2.56386 15.9375 2.8125V3.75H19.6875V2.8125C19.6875 2.56386 19.7863 2.3254 19.9621 2.14959C20.1379 1.97377 20.3764 1.875 20.625 1.875C20.8736 1.875 21.1121 1.97377 21.2879 2.14959C21.4637 2.3254 21.5625 2.56386 21.5625 2.8125V3.75C22.3084 3.75 23.0238 4.04632 23.5512 4.57376C24.0787 5.10121 24.375 5.81658 24.375 6.5625V18.9113C24.3743 19.6569 24.0776 20.3718 23.55 20.8987L17.1487 27.3019C16.6215 27.8288 15.9067 28.1248 15.1613 28.125H8.4375C7.69158 28.125 6.97621 27.8287 6.44876 27.3012C5.92132 26.7738 5.625 26.0584 5.625 25.3125V6.5625C5.625 5.81658 5.92132 5.10121 6.44876 4.57376C6.97621 4.04632 7.69158 3.75 8.4375 3.75V2.8125C8.4375 2.56386 8.53627 2.3254 8.71209 2.14959C8.8879 1.97377 9.12636 1.875 9.375 1.875V1.875ZM21.5625 5.625H8.4375C8.18886 5.625 7.9504 5.72377 7.77459 5.89959C7.59877 6.0754 7.5 6.31386 7.5 6.5625V25.3125C7.5 25.5611 7.59877 25.7996 7.77459 25.9754C7.9504 26.1512 8.18886 26.25 8.4375 26.25H15V21.5625C15 20.8166 15.2963 20.1012 15.8238 19.5738C16.3512 19.0463 17.0666 18.75 17.8125 18.75H22.5V6.5625C22.5 6.31386 22.4012 6.0754 22.2254 5.89959C22.0496 5.72377 21.8111 5.625 21.5625 5.625ZM16.875 24.9244L21.1744 20.625H17.8125C17.5639 20.625 17.3254 20.7238 17.1496 20.8996C16.9738 21.0754 16.875 21.3139 16.875 21.5625V24.9244Z" fill="#adb5bd"/>
</svg>
