<svg width="60" height="60" viewBox="0 0 60 60" fill="none" xmlns="http://www.w3.org/2000/svg">
<path d="M52.5 0H7.5C4.40625 0 1.875 2.53125 1.875 5.625V54.375C1.875 57.4687 4.40625 60 7.5 60H52.5C55.5937 60 58.125 57.4687 58.125 54.375V5.625C58.125 2.53125 55.5937 0 52.5 0ZM50.625 52.5H9.375V7.5H50.625V52.5ZM16.875 33.75H43.125V37.5H16.875V33.75ZM16.875 41.25H43.125V45H16.875V41.25ZM20.625 16.875C20.6252 16.1361 20.771 15.4044 21.054 14.7218C21.337 14.0392 21.7517 13.4191 22.2744 12.8967C22.7971 12.3744 23.4175 11.9602 24.1003 11.6776C24.7831 11.3951 25.5148 11.2498 26.2537 11.25C26.9927 11.2502 27.7243 11.396 28.4069 11.679C29.0895 11.962 29.7097 12.3767 30.232 12.8994C30.7543 13.4221 31.1686 14.0425 31.4511 14.7253C31.7337 15.4081 31.879 16.1398 31.8788 16.8787C31.8783 18.3711 31.2849 19.8021 30.2294 20.857C29.1738 21.9119 27.7423 22.5042 26.25 22.5037C24.7577 22.5033 23.3266 21.9099 22.2717 20.8544C21.2169 19.7988 20.6245 18.3673 20.625 16.875ZM30 22.5H22.5C19.4063 22.5 16.875 24.1875 16.875 26.25V30H35.625V26.25C35.625 24.1875 33.0937 22.5 30 22.5Z" fill="white"/>
</svg>
