<svg width="31" height="31" viewBox="0 0 31 31" fill="none" xmlns="http://www.w3.org/2000/svg">
<path d="M23.7559 10.25L25.2493 13.0625L28.4434 13.4506L26.0996 15.5628L26.5684 18.6875L23.7559 16.9297L20.9434 18.6875L21.4121 15.5628L19.0684 13.4506L22.3496 13.0625L23.7559 10.25Z" fill="#adb5bd"/>
<path d="M20.9434 29H19.0684V24.3125C19.0669 23.0698 18.5725 21.8783 17.6938 20.9996C16.815 20.1208 15.6236 19.6265 14.3809 19.625H8.75586C7.51311 19.6265 6.32169 20.1208 5.44294 20.9996C4.56419 21.8783 4.06985 23.0698 4.06836 24.3125V29H2.19336V24.3125C2.19534 22.5726 2.88739 20.9046 4.11766 19.6743C5.34794 18.444 7.01599 17.752 8.75586 17.75H14.3809C16.1207 17.752 17.7888 18.444 19.0191 19.6743C20.2493 20.9046 20.9414 22.5726 20.9434 24.3125V29Z" fill="#adb5bd"/>
<path d="M11.5684 4.625C12.4955 4.625 13.4017 4.89992 14.1726 5.41499C14.9435 5.93006 15.5443 6.66214 15.899 7.51867C16.2538 8.3752 16.3467 9.3177 16.1658 10.227C15.9849 11.1363 15.5385 11.9715 14.8829 12.6271C14.2274 13.2826 13.3921 13.7291 12.4828 13.9099C11.5736 14.0908 10.6311 13.998 9.77453 13.6432C8.91801 13.2884 8.18592 12.6876 7.67085 11.9167C7.15578 11.1459 6.88086 10.2396 6.88086 9.3125C6.88086 8.0693 7.37472 6.87701 8.2538 5.99794C9.13288 5.11886 10.3252 4.625 11.5684 4.625V4.625ZM11.5684 2.75C10.2704 2.75 9.00163 3.13488 7.92243 3.85598C6.84324 4.57708 6.0021 5.602 5.5054 6.80114C5.0087 8.00028 4.87874 9.31978 5.13196 10.5928C5.38517 11.8658 6.01019 13.0351 6.92797 13.9529C7.84576 14.8707 9.01508 15.4957 10.2881 15.7489C11.5611 16.0021 12.8806 15.8722 14.0797 15.3755C15.2789 14.8788 16.3038 14.0376 17.0249 12.9584C17.746 11.8792 18.1309 10.6104 18.1309 9.3125C18.1309 7.57202 17.4395 5.90282 16.2088 4.67211C14.978 3.4414 13.3088 2.75 11.5684 2.75V2.75Z" fill="#adb5bd"/>
</svg>
