<svg width="30" height="31" viewBox="0 0 30 31" fill="none" xmlns="http://www.w3.org/2000/svg">
<path fill-rule="evenodd" clip-rule="evenodd" d="M5 26.6562H8.75V22.9062H21.25V26.6562H25V19.1562H5V26.6562ZM23.75 12.9062H27.5V16.6562H23.75V12.9062ZM2.5 12.9062H6.25V16.6562H2.5V12.9062ZM21.25 16.6562H8.75V6.65625C8.75 5.28125 9.875 4.15625 11.25 4.15625H18.75C20.125 4.15625 21.25 5.28125 21.25 6.65625V16.6562ZM13.2031 6.71875C13.0221 6.71875 12.875 6.86584 12.875 7.04688V8.41797H11.4844C11.3033 8.41797 11.1562 8.56505 11.1562 8.74609V9.33203C11.1562 9.51307 11.3033 9.66016 11.4844 9.66016H12.875V11.4648H11.4844C11.3033 11.4648 11.1562 11.6119 11.1562 11.793V12.3789C11.1562 12.5599 11.3033 12.707 11.4844 12.707H12.875V14.0781C12.875 14.2592 13.0221 14.4062 13.2031 14.4062H13.8281C14.0092 14.4062 14.1562 14.2592 14.1562 14.0781V12.707H15.8828V14.0781C15.8828 14.2592 16.0299 14.4062 16.2109 14.4062H16.8359C17.017 14.4062 17.1641 14.2592 17.1641 14.0781V12.707H18.5156C18.6967 12.707 18.8438 12.5599 18.8438 12.3789V11.793C18.8438 11.6119 18.6967 11.4648 18.5156 11.4648H17.1641V9.66016H18.5156C18.6967 9.66016 18.8438 9.51307 18.8438 9.33203V8.74609C18.8438 8.56505 18.6967 8.41797 18.5156 8.41797H17.1641V7.04688C17.1641 6.86584 17.017 6.71875 16.8359 6.71875H16.2109C16.0299 6.71875 15.8828 6.86584 15.8828 7.04688V8.41797H14.1562V7.04688C14.1562 6.86584 14.0092 6.71875 13.8281 6.71875H13.2031ZM14.1562 11.4648V9.66016H15.8828V11.4648H14.1562Z" fill="#adb5bd"/>
</svg>
