<svg width="60" height="60" viewBox="0 0 60 60" fill="none" xmlns="http://www.w3.org/2000/svg">
<path d="M52.8089 22.5569C54.4788 27.6858 54.3722 33.2277 52.5064 38.2886C50.6406 43.3495 47.1244 47.6344 42.525 50.452C37.9255 53.2696 32.511 54.4557 27.1549 53.819C21.7987 53.1823 16.8132 50.7599 13.0025 46.9425C9.19179 43.1251 6.77812 38.1353 6.15081 32.778C5.5235 27.4207 6.71914 22.0083 9.54484 17.4139C12.3706 12.8194 16.6616 9.31071 21.7258 7.45382C26.7899 5.59693 32.332 5.5001 37.4579 7.17893L34.3139 10.3199C34.1399 10.4939 33.9839 10.6799 33.8399 10.8779C29.7362 10.0496 25.4748 10.564 21.6861 12.3451C17.8973 14.1261 14.7824 17.0792 12.8019 20.7676C10.8214 24.456 10.0805 28.6839 10.6888 32.8259C11.2971 36.968 13.2224 40.8043 16.1797 43.7675C19.1371 46.7307 22.9697 48.6635 27.1105 49.2799C31.2514 49.8964 35.4807 49.1638 39.173 47.1905C42.8653 45.2173 45.8245 42.1081 47.6129 38.3229C49.4014 34.5376 49.9242 30.2773 49.1039 26.1719C49.3092 26.0263 49.5019 25.8638 49.6799 25.6859L52.8059 22.5599L52.8089 22.5569ZM44.6939 26.9999C45.338 30.1594 44.9468 33.4423 43.5784 36.362C42.21 39.2816 39.9371 41.6826 37.0969 43.209C34.2566 44.7354 31 45.3059 27.81 44.8359C24.62 44.366 21.6663 42.8806 19.3869 40.6C17.1074 38.3194 15.6236 35.365 15.1553 32.1747C14.6869 28.9844 15.2591 25.7282 16.7869 22.8887C18.3148 20.0492 20.7169 17.7776 23.6373 16.4107C26.5577 15.0437 29.8408 14.6542 32.9999 15.2999V19.9349C30.7611 19.2663 28.3632 19.3636 26.1858 20.2114C24.0085 21.0591 22.1761 22.6089 20.9788 24.6154C19.7814 26.6219 19.2876 28.9704 19.5754 31.2892C19.8632 33.6079 20.9161 35.7645 22.5676 37.4174C24.2191 39.0703 26.3748 40.1251 28.6933 40.4148C31.0118 40.7046 33.3608 40.2127 35.3683 39.0171C37.3758 37.8215 38.9271 35.9904 39.7767 33.8138C40.6263 31.6372 40.7256 29.2394 40.0589 26.9999H44.6939ZM29.9939 34.4999C30.684 34.5003 31.365 34.3419 31.9841 34.0371C32.6033 33.7322 33.144 33.289 33.5645 32.7418C33.985 32.1946 34.274 31.558 34.4091 30.8812C34.5443 30.2045 34.522 29.5057 34.3439 28.8389L39.0899 24.0899L39.1799 23.9999H46.4999C46.697 24.0003 46.8923 23.9618 47.0745 23.8866C47.2567 23.8115 47.4224 23.7011 47.5619 23.5619L53.5619 17.5619C53.7722 17.3521 53.9155 17.0846 53.9736 16.7933C54.0317 16.502 54.002 16.2 53.8883 15.9255C53.7745 15.6511 53.5819 15.4167 53.3347 15.2519C53.0875 15.0871 52.797 14.9994 52.4999 14.9999H44.9999V7.49994C44.9999 7.20349 44.912 6.91371 44.7473 6.66719C44.5827 6.42066 44.3487 6.22845 44.0749 6.11482C43.8011 6.00119 43.4998 5.97124 43.2089 6.02875C42.9181 6.08626 42.6509 6.22864 42.4409 6.43793L36.4409 12.4379C36.3012 12.5772 36.1903 12.7428 36.1146 12.925C36.0389 13.1072 36 13.3026 35.9999 13.4999V20.8199C35.9691 20.8491 35.9391 20.8791 35.9099 20.9099L31.1639 25.6499C30.5441 25.4807 29.8952 25.4461 29.2608 25.5484C28.6265 25.6508 28.0214 25.8877 27.4862 26.2432C26.951 26.5988 26.4981 27.0648 26.1579 27.6099C25.8177 28.155 25.5981 28.7666 25.5139 29.4036C25.4296 30.0406 25.4827 30.6882 25.6695 31.303C25.8563 31.9178 26.1725 32.4855 26.5968 32.968C27.0212 33.4505 27.5439 33.8365 28.1299 34.1002C28.7158 34.3639 29.3514 34.4992 29.9939 34.4969V34.4999Z" fill="white"/>
</svg>
