<svg width="60" height="61" viewBox="0 0 60 61" fill="none" xmlns="http://www.w3.org/2000/svg">
<path d="M49.75 31.9026C49.3492 31.4464 49.1282 30.8599 49.1282 30.2526C49.1282 29.6453 49.3492 29.0588 49.75 28.6026L52.95 25.0026C53.3026 24.6093 53.5216 24.1144 53.5755 23.5889C53.6294 23.0634 53.5154 22.5343 53.25 22.0776L48.25 13.4276C47.9872 12.9714 47.5872 12.6098 47.1069 12.3943C46.6265 12.1788 46.0904 12.1205 45.575 12.2276L40.875 13.1776C40.2769 13.3012 39.6544 13.2016 39.1247 12.8976C38.5951 12.5936 38.195 12.1063 38 11.5276L36.475 6.95261C36.3073 6.45605 35.9877 6.02477 35.5616 5.71971C35.1354 5.41465 34.6241 5.25125 34.1 5.25261H24.1C23.5548 5.22415 23.0153 5.37492 22.5639 5.68189C22.1125 5.98886 21.7739 6.43515 21.6 6.95261L20.2 11.5276C20.005 12.1063 19.6049 12.5936 19.0753 12.8976C18.5456 13.2016 17.923 13.3012 17.325 13.1776L12.5 12.2276C12.0114 12.1586 11.5132 12.2357 11.0684 12.4492C10.6235 12.6627 10.2517 13.0032 9.99998 13.4276L4.99998 22.0776C4.72788 22.5292 4.60554 23.0553 4.65044 23.5807C4.69534 24.106 4.90519 24.6037 5.24998 25.0026L8.42498 28.6026C8.82578 29.0588 9.04682 29.6453 9.04682 30.2526C9.04682 30.8599 8.82578 31.4464 8.42498 31.9026L5.24998 35.5026C4.90519 35.9015 4.69534 36.3992 4.65044 36.9245C4.60554 37.4499 4.72788 37.976 4.99998 38.4276L9.99998 47.0776C10.2627 47.5338 10.6628 47.8954 11.1431 48.1109C11.6234 48.3264 12.1595 48.3847 12.675 48.2776L17.375 47.3276C17.973 47.204 18.5956 47.3036 19.1253 47.6076C19.6549 47.9116 20.055 48.3989 20.25 48.9776L21.775 53.5526C21.9489 54.0701 22.2875 54.5164 22.7389 54.8233C23.1903 55.1303 23.7298 55.2811 24.275 55.2526H34.275C34.7991 55.254 35.3104 55.0906 35.7366 54.7855C36.1627 54.4804 36.4823 54.0492 36.65 53.5526L38.175 48.9776C38.37 48.3989 38.7701 47.9116 39.2997 47.6076C39.8293 47.3036 40.4519 47.204 41.05 47.3276L45.75 48.2776C46.2654 48.3847 46.8015 48.3264 47.2819 48.1109C47.7622 47.8954 48.1622 47.5338 48.425 47.0776L53.425 38.4276C53.6904 37.9709 53.8044 37.4418 53.7505 36.9163C53.6966 36.3908 53.4776 35.8959 53.125 35.5026L49.75 31.9026ZM46.025 35.2526L48.025 37.5026L44.825 43.0526L41.875 42.4526C40.0744 42.0845 38.2014 42.3904 36.6115 43.3121C35.0215 44.2338 33.8253 45.7072 33.25 47.4526L32.3 50.2526H25.9L25 47.4026C24.4246 45.6572 23.2284 44.1838 21.6385 43.2621C20.0486 42.3404 18.1755 42.0346 16.375 42.4026L13.425 43.0026L10.175 37.4776L12.175 35.2276C13.4049 33.8526 14.0848 32.0724 14.0848 30.2276C14.0848 28.3828 13.4049 26.6027 12.175 25.2276L10.175 22.9776L13.375 17.4776L16.325 18.0776C18.1255 18.4457 19.9986 18.1398 21.5885 17.2181C23.1784 16.2964 24.3746 14.823 24.95 13.0776L25.9 10.2526H32.3L33.25 13.1026C33.8253 14.848 35.0215 16.3214 36.6115 17.2431C38.2014 18.1648 40.0744 18.4707 41.875 18.1026L44.825 17.5026L48.025 23.0526L46.025 25.3026C44.8089 26.6745 44.1374 28.4443 44.1374 30.2776C44.1374 32.1109 44.8089 33.8807 46.025 35.2526V35.2526ZM29.1 20.2526C27.1222 20.2526 25.1888 20.8391 23.5443 21.9379C21.8998 23.0367 20.6181 24.5985 19.8612 26.4258C19.1043 28.253 18.9063 30.2637 19.2921 32.2035C19.678 34.1433 20.6304 35.9251 22.0289 37.3237C23.4274 38.7222 25.2093 39.6746 27.1491 40.0605C29.0889 40.4463 31.0996 40.2483 32.9268 39.4914C34.7541 38.7345 36.3159 37.4528 37.4147 35.8083C38.5135 34.1638 39.1 32.2304 39.1 30.2526C39.1 27.6004 38.0464 25.0569 36.1711 23.1815C34.2957 21.3062 31.7522 20.2526 29.1 20.2526V20.2526ZM29.1 35.2526C28.1111 35.2526 27.1444 34.9594 26.3221 34.41C25.4999 33.8605 24.859 33.0797 24.4806 32.166C24.1021 31.2524 24.0031 30.2471 24.1961 29.2772C24.389 28.3072 24.8652 27.4163 25.5644 26.7171C26.2637 26.0178 27.1546 25.5416 28.1245 25.3487C29.0944 25.1558 30.0998 25.2548 31.0134 25.6332C31.927 26.0116 32.7079 26.6525 33.2573 27.4748C33.8067 28.297 34.1 29.2637 34.1 30.2526C34.1 31.5787 33.5732 32.8505 32.6355 33.7881C31.6978 34.7258 30.4261 35.2526 29.1 35.2526Z" fill="black"/>
</svg>
