<svg width="31" height="30" viewBox="0 0 31 30" fill="none" xmlns="http://www.w3.org/2000/svg">
<path d="M19.6014 18.3462C19.4179 18.2862 18.2583 17.7635 18.9829 15.5608H18.9725C20.8614 13.6154 22.3048 10.4851 22.3048 7.40313C22.3048 2.66428 19.1537 0.180054 15.4914 0.180054C11.8268 0.180054 8.6929 2.66313 8.6929 7.40313C8.6929 10.4977 10.1283 13.6408 12.0287 15.5816C12.7694 17.5247 11.4448 18.2458 11.1679 18.3474C7.33252 19.7343 2.83252 22.2624 2.83252 24.7581V25.6939C2.83252 29.0943 9.4256 29.8674 15.5271 29.8674C21.6379 29.8674 28.1479 29.0943 28.1479 25.6939V24.7581C28.1479 22.1874 23.626 19.6789 19.6014 18.3462Z" fill="#adb5bd"/>
</svg>
