<svg width="31" height="31" viewBox="0 0 31 31" fill="none" xmlns="http://www.w3.org/2000/svg">
<g clip-path="url(#clip0)">
<path d="M19.637 19.0574C19.4535 18.9974 18.2939 18.4747 19.0185 16.272H19.0082C20.897 14.3266 22.3405 11.1962 22.3405 8.11431C22.3405 3.37547 19.1893 0.891235 15.527 0.891235C11.8624 0.891235 8.72855 3.37431 8.72855 8.11431C8.72855 11.2089 10.1639 14.352 12.0643 16.2928C12.8051 18.2359 11.4805 18.957 11.2035 19.0585C7.36816 20.4455 2.86816 22.9735 2.86816 25.4693V26.4051C2.86816 29.8055 9.46124 30.5785 15.5628 30.5785C21.6735 30.5785 28.1835 29.8055 28.1835 26.4051V25.4693C28.1835 22.8985 23.6616 20.3901 19.637 19.0574Z" fill="#adb5bd"/>
<rect x="21.9573" y="14.8695" width="8.71361" height="1.28608" fill="#adb5bd"/>
<rect x="22.0402" y="11.8695" width="8.71" height="1.28608" fill="#adb5bd"/>
<rect x="21.9573" y="17.8695" width="8.71361" height="1.28608" fill="#adb5bd"/>
</g>
<defs>
<clipPath id="clip0">
<rect width="30" height="30" fill="white" transform="translate(0.525879 0.711182)"/>
</clipPath>
</defs>
</svg>
